<svg version="1.1" xmlns="http://www.w3.org/2000/svg" xmlns:xlink="http://www.w3.org/1999/xlink">
	<defs>
		<symbol id="icon-arrow-1" viewBox="0 0 10 10">
			<path d="m 2.3520671,0.20920992 c 0.2789466,-0.27894656 0.7312021,-0.27894656 1.0101486,0 L 7.647932,4.4949305 c 0.2789466,0.2789465 0.2789466,0.7312075 0,1.0101433 L 3.3622157,9.7907905 c -0.2789465,0.2789455 -0.731202,0.2789455 -1.0101486,0 -0.2789455,-0.2789363 -0.2789455,-0.7311972 0,-1.0101437 L 6.1327063,5.0000021 2.3520671,1.2193575 c -0.2789455,-0.2789358 -0.2789455,-0.73120209 0,-1.01014758 z" />
		</symbol>
		<symbol id="icon-arrow-2" viewBox="0 0 12 12">
			<path d="M 5.4402285,11.440239 0,5.9999895 5.4402285,0.559761 6.4897821,1.5976565 2.8454794,5.2419695 H 12 V 6.7579993 H 2.8454794 l 3.6443027,3.6384527 z" />
		</symbol>
		<symbol id="icon-bell" viewBox="0 0 18 18">
			<path d="m 8.9999998,0.95898431 c -1.4362988,0 -2.8144616,0.57227409 -3.8300781,1.58789059 C 4.1543051,3.5624914 3.5839842,4.9406587 3.5839842,6.3769531 v 2 c 0,0.8727556 -0.3462904,1.3251427 -0.8125,1.8535159 -0.2331049,0.264187 -0.4986461,0.526617 -0.7363282,0.859375 -0.2376819,0.332758 -0.4511718,0.773073 -0.4511718,1.287109 0,0.570098 0.33785,1.053539 0.7558594,1.38086 0.4180094,0.32732 0.9446626,0.563197 1.5800781,0.759765 1.2708308,0.39314 2.9934666,0.609375 5.0800781,0.609375 2.0866072,0 3.8092482,-0.216235 5.0800782,-0.609375 0.635415,-0.196568 1.16207,-0.432445 1.580078,-0.759765 0.41801,-0.327321 0.75586,-0.810762 0.75586,-1.38086 0,-0.514036 -0.21349,-0.954351 -0.451172,-1.287109 -0.237682,-0.332758 -0.503224,-0.595188 -0.736328,-0.859375 -0.46621,-0.5283732 -0.8125,-0.9807603 -0.8125,-1.8535159 v -2 c 0,-1.4363066 -0.570411,-2.8144701 -1.585938,-3.8300782 C 11.814437,1.531269 10.436299,0.95898431 8.9999998,0.95898431 Z m 0,1.49999999 c 1.0390562,0 2.0347762,0.413707 2.7695312,1.1484375 0.734671,0.7347284 1.146485,1.7305027 1.146485,2.7695313 v 2 c 0,1.3272898 0.653711,2.2407409 1.1875,2.8457039 0.266893,0.30248 0.503307,0.547988 0.640625,0.740234 0.137316,0.192246 0.171875,0.294751 0.171875,0.414062 0,-0.0034 0.01493,0.04529 -0.181641,0.199219 -0.196573,0.153926 -0.574741,0.346045 -1.097656,0.507813 -1.045831,0.323533 -2.656674,0.542968 -4.6367192,0.542968 -1.9800503,0 -3.5908868,-0.219435 -4.6367188,-0.542968 C 3.840365,12.922217 3.4621976,12.730098 3.2656248,12.576172 3.069052,12.422247 3.0839842,12.373505 3.0839842,12.376953 c 0,-0.119311 0.034558,-0.221816 0.171875,-0.414062 0.1373172,-0.192246 0.3737307,-0.437754 0.640625,-0.740234 0.5337883,-0.604963 1.1875,-1.5184141 1.1875,-2.8457039 v -2 c 0,-1.0390407 0.4117645,-2.0348113 1.1464844,-2.7695313 C 6.9651885,2.8727019 7.9609435,2.4589843 8.9999998,2.4589843 Z M 7.097656,15.642578 c 0.1270599,0.4054 0.3783635,0.760219 0.7207032,1.011719 0.3423496,0.2514 0.756871,0.386719 1.1816406,0.386719 0.4247696,0 0.839301,-0.135319 1.1816402,-0.386719 0.34235,-0.2515 0.595587,-0.606319 0.722657,-1.011719 -0.596,0.044 -1.2302979,0.06641 -1.9042972,0.06641 -0.6739993,0 -1.3063443,-0.02241 -1.9023438,-0.06641 z" />
		</symbol>
		<symbol id="icon-study" viewBox="0 0 24 24">
			<path d="M 12 3 L 1 9 L 5 11.199219 L 5 17.199219 L 12 21 L 19 17.199219 L 19 11.199219 L 21 10.099609 L 21 17 L 23 17 L 23 9 L 12 3 z M 12 5.3007812 L 18.849609 9 L 12 12.699219 L 5.1503906 9 L 12 5.3007812 z M 7 12.25 L 12 15 L 17 12.25 L 17 16.025391 L 12 18.724609 L 7 16.025391 L 7 12.25 z " />
		</symbol>
		<symbol id="icon-ruble" viewBox="0 0 24 24">
			<path d="M 8.1347656 5.0175781 L 8.1347656 11.726562 L 6 11.726562 L 6 13.513672 L 8.1347656 13.513672 L 8.1347656 14.685547 L 6 14.685547 L 6 16.480469 L 8.1347656 16.480469 L 8.1347656 18.982422 L 10.234375 18.982422 L 10.234375 16.480469 L 13.308594 16.480469 L 13.308594 14.685547 L 10.234375 14.685547 L 10.234375 13.513672 L 13.207031 13.513672 C 14.25703 13.513672 15.136604 13.329117 15.845703 12.960938 C 16.559342 12.588208 17.096078 12.083635 17.455078 11.447266 C 17.818778 10.806366 18 10.087109 18 9.2871094 C 18 8.4962002 17.820037 7.7782619 17.460938 7.1328125 C 17.106338 6.4873531 16.572984 5.9736135 15.859375 5.5917969 C 15.150286 5.2099783 14.26612 5.0175781 13.207031 5.0175781 L 8.1347656 5.0175781 z M 10.234375 6.8183594 L 13.207031 6.8183594 C 13.816121 6.8183594 14.320694 6.9263515 14.720703 7.1445312 C 15.120693 7.358171 15.417821 7.652661 15.613281 8.0253906 C 15.808731 8.3981203 15.90625 8.8202392 15.90625 9.2929688 C 15.90625 9.7702383 15.808731 10.192367 15.613281 10.560547 C 15.417821 10.924187 15.11743 11.210832 14.712891 11.419922 C 14.308341 11.624472 13.797867 11.726562 13.179688 11.726562 L 10.234375 11.726562 L 10.234375 6.8183594 z " />
		</symbol>
		<symbol id="icon-ruble-x" viewBox="0 0 24 24">
			<path d="M 4.1347656 5.0175781 L 4.1347656 11.726562 L 2 11.726562 L 2 13.513672 L 4.1347656 13.513672 L 4.1347656 14.685547 L 2 14.685547 L 2 16.480469 L 4.1347656 16.480469 L 4.1347656 18.982422 L 6.234375 18.982422 L 6.234375 16.480469 L 9.3085938 16.480469 L 9.3085938 14.685547 L 6.234375 14.685547 L 6.234375 13.513672 L 9.2070312 13.513672 C 9.4832208 13.513672 9.7474006 13.500109 10 13.474609 L 10 13.513672 L 12.134766 13.513672 L 12.134766 14.685547 L 10 14.685547 L 10 16.480469 L 12.134766 16.480469 L 12.134766 18.982422 L 14.234375 18.982422 L 14.234375 16.480469 L 17.308594 16.480469 L 17.308594 14.685547 L 14.234375 14.685547 L 14.234375 13.513672 L 17.207031 13.513672 C 18.257029 13.513672 19.136605 13.329036 19.845703 12.960938 C 20.559301 12.588138 21.096078 12.083664 21.455078 11.447266 C 21.818778 10.806366 22 10.087108 22 9.2871094 C 22 8.496151 21.820036 7.776308 21.460938 7.1308594 C 21.106338 6.4854006 20.572973 5.9736061 19.859375 5.5917969 C 19.150277 5.2099777 18.266129 5.0175781 17.207031 5.0175781 L 12.134766 5.0175781 L 12.134766 5.75 C 12.046266 5.6946102 11.954175 5.6425367 11.859375 5.5917969 C 11.150277 5.2099777 10.266109 5.0175781 9.2070312 5.0175781 L 4.1347656 5.0175781 z M 6.234375 6.8183594 L 9.2070312 6.8183594 C 9.8161206 6.8183594 10.320704 6.9263515 10.720703 7.1445312 C 11.120703 7.358171 11.417881 7.652661 11.613281 8.0253906 C 11.808781 8.3981103 11.90625 8.8202092 11.90625 9.2929688 C 11.90625 9.7701683 11.808781 10.192347 11.613281 10.560547 C 11.417881 10.924147 11.11749 11.210922 10.712891 11.419922 C 10.308391 11.624522 9.7978669 11.726562 9.1796875 11.726562 L 6.234375 11.726562 L 6.234375 6.8183594 z M 14.234375 6.8183594 L 17.207031 6.8183594 C 17.816131 6.8183594 18.320705 6.9263518 18.720703 7.1445312 C 19.120703 7.3581708 19.417881 7.6526614 19.613281 8.0253906 C 19.808781 8.39811 19.90625 8.8202096 19.90625 9.2929688 C 19.90625 9.7701678 19.808781 10.192347 19.613281 10.560547 C 19.417881 10.924147 19.117489 11.210922 18.712891 11.419922 C 18.308391 11.624522 17.797886 11.726562 17.179688 11.726562 L 14.234375 11.726562 L 14.234375 6.8183594 z " />
		</symbol>
		<symbol id="icon-cup" viewBox="0 0 24 24">
			<path  d="m 3.7493276,3.0000002 v 4.5000001 c 0,0.7954298 0.3157969,1.558635 0.8782454,2.1210835 0.5624484,0.5624482 1.3256538,0.8782452 2.1210832,0.8782452 h 0.054387 c 0.1611094,1.115446 0.6783791,2.156893 1.4845569,2.963071 0.8057086,0.805728 1.8463659,1.321605 2.9610569,1.482543 v 1.555058 h -0.749329 c -0.9943589,0 -1.9497509,0.396655 -2.6528648,1.099821 -0.7024138,0.702976 -1.0978068,1.657098 -1.0978068,2.650851 V 21 H 17.249328 v -0.749327 c 0,-0.993758 -0.395342,-1.947875 -1.097807,-2.650851 -0.703089,-0.70322 -1.658536,-1.099821 -2.652864,-1.099821 h -0.749329 v -1.555058 c 1.115441,-0.160609 2.156907,-0.676321 2.963071,-1.482543 0.806246,-0.806187 1.32194,-1.847634 1.482542,-2.963071 h 0.05438 c 0.795457,0 1.558637,-0.315841 2.121083,-0.8782453 0.562529,-0.5624808 0.880268,-1.3257143 0.880268,-2.1210835 v -4.5 H 17.249328 7.4979847 6.7486562 Z m 1.4986572,1.4986571 h 1.5006714 v 4.5020146 c -0.3981513,0 -0.7800171,-0.1596052 -1.0615488,-0.441137 C 5.4055756,8.278003 5.2479848,7.8981517 5.2479848,7.5000003 Z m 3.0013429,0 h 7.4993293 v 5.2513432 c 0,0.9949475 -0.394246,1.9473415 -1.097807,2.6508505 -0.703454,0.703506 -1.655915,1.099821 -2.650851,1.099821 -0.994947,0 -1.949354,-0.396293 -2.6528644,-1.099821 C 8.6436147,11.697332 8.2493277,10.74493 8.2493277,9.7500005 Z m 9.0000003,0 H 18.75 v 3.0013431 c 0,0.398212 -0.157603,0.7780351 -0.439124,1.0595345 -0.281596,0.2815762 -0.663341,0.441137 -1.061548,0.441137 z m -6.75,13.5020157 h 2.999329 c 0.597016,0 1.169223,0.236514 1.591315,0.658683 0.223373,0.223333 0.23649,0.553245 0.348479,0.841989 H 8.5595336 c 0.1119851,-0.288749 0.1251227,-0.618658 0.3484782,-0.841989 0.4221931,-0.422222 0.9942474,-0.658683 1.5913162,-0.658683 z" />
		</symbol>
		<symbol id="icon-info" viewBox="0 0 20 20">
			<path d="M 10 0 C 4.4869967 0 0 4.4870336 0 10 C 0 15.513002 4.4870031 20 10 20 C 15.512951 20 20 15.512996 20 10 C 20 4.4870395 15.512957 0 10 0 z M 10 1.6660156 C 14.612222 1.6660156 18.333984 5.3877607 18.333984 10 C 18.333984 14.612282 14.612228 18.333984 10 18.333984 C 5.3877171 18.333984 1.6660156 14.612277 1.6660156 10 C 1.6660156 5.3877666 5.3877235 1.6660156 10 1.6660156 z M 10.324219 4.1660156 C 9.4998323 4.1739822 8.6531379 4.3612025 7.875 4.7050781 L 7.1113281 5.0410156 L 7.7851562 6.5664062 L 8.546875 6.2285156 C 9.2391634 5.9225787 10.06975 5.7870358 10.736328 5.8496094 C 11.402907 5.9121833 11.837418 6.1530306 12.015625 6.4414062 C 12.259191 6.8355469 12.288951 7.184732 12.158203 7.6113281 C 12.027455 8.0379243 11.693756 8.5299855 11.162109 8.9804688 C 10.518063 9.5261979 10.046748 9.9644619 9.7011719 10.453125 C 9.355596 10.941789 9.1660156 11.517063 9.1660156 12.083984 L 9.1660156 12.916016 L 10.833984 12.916016 L 10.833984 12.083984 C 10.833984 11.817609 10.870174 11.68797 11.0625 11.416016 C 11.254823 11.14406 11.634284 10.765402 12.240234 10.251953 C 12.958586 9.6432685 13.500802 8.9190482 13.751953 8.0996094 C 14.003104 7.2801705 13.919226 6.3522634 13.433594 5.5664062 C 12.882601 4.6747842 11.886323 4.2829218 10.890625 4.1894531 C 10.703932 4.1719277 10.514462 4.1641772 10.324219 4.1660156 z M 10 14.166016 C 9.5397405 14.166016 9.1660156 14.5398 9.1660156 15 C 9.1660156 15.4603 9.5397405 15.833984 10 15.833984 C 10.4602 15.833984 10.833984 15.4603 10.833984 15 C 10.833984 14.5398 10.4602 14.166016 10 14.166016 z " />
		</symbol>
		<symbol id="icon-calendar" viewBox="0 0 24 24">
			<path d="m 8,0.999982 c 0.55228,0 1,0.447716 1,0.999996 v 1 h 6 v -1 c 0,-0.55228 0.4477,-0.999996 1,-0.999996 0.5523,0 1,0.447716 1,0.999996 v 1 h 2 c 1.6569,0 3,1.34315 3,3 v 14.00004 c 0,1.6568 -1.3431,3 -3,3 H 5 c -1.65685,0 -3,-1.3432 -3,-3 V 5.999978 c 0,-1.65685 1.34315,-3 3,-3 h 2 v -1 C 7,1.447698 7.44772,0.999982 8,0.999982 Z M 7,4.999978 H 5 c -0.55228,0 -1,0.44772 -1,1 v 3 h 16 v -3 c 0,-0.55228 -0.4477,-1 -1,-1 h -2 v 1 c 0,0.55229 -0.4477,1 -1,1 -0.5523,0 -1,-0.44771 -1,-1 v -1 H 9 v 1 c 0,0.55229 -0.44772,1 -1,1 -0.55228,0 -1,-0.44771 -1,-1 z m 13,6.00004 H 4 v 9 c 0,0.5523 0.44771,1 1,1 h 14 c 0.5523,0 1,-0.4477 1,-1 z" />
		</symbol>
		<symbol id="icon-journal" viewBox="0 0 24 24">
			<path d="M 2 2 C 1.4477212 2 1 2.4477212 1 3 L 1 18 C 1 18.552198 1.4477212 19 2 19 L 9 19 C 9.530429 19 10.038964 19.210838 10.414062 19.585938 C 10.789162 19.960936 11 20.469502 11 21 C 11 21.552198 11.447702 22 12 22 C 12.552298 22 13 21.552198 13 21 C 13 20.469502 13.210838 19.960936 13.585938 19.585938 C 13.961036 19.210838 14.469602 19 15 19 L 22 19 C 22.552298 19 23 18.552198 23 18 L 23 3 C 23 2.4477212 22.552298 2 22 2 L 16 2 C 14.673902 2 13.402442 2.5271656 12.464844 3.4648438 C 12.296544 3.6331234 12.1411 3.8118204 12 4 C 11.8589 3.8118204 11.703456 3.6331234 11.535156 3.4648438 C 10.597558 2.5271656 9.3260774 2 8 2 L 2 2 z M 3 4 L 8 4 C 8.7956492 4 9.5585043 4.3162968 10.121094 4.8789062 C 10.683693 5.4415157 11 6.2043508 11 7 L 11 17.535156 C 10.397101 17.187057 9.7082293 17 9 17 L 3 17 L 3 4 z M 16 4 L 21 4 L 21 17 L 15 17 C 14.291802 17 13.602898 17.187058 13 17.535156 L 13 7 C 13 6.2043516 13.316308 5.4415152 13.878906 4.8789062 C 14.441506 4.3162974 15.204402 4 16 4 z " />
		</symbol>
		<symbol id="icon-smile" viewBox="0 0 24 24">
			<path d="M 12 1 C 5.9367214 1 1 5.9367226 1 12 C 1 18.063232 5.9367166 23 12 23 C 18.063238 23 23 18.063238 23 12 C 23 5.9367166 18.063234 1 12 1 z M 12 3 C 16.982344 3 21 7.0176056 21 12 C 21 16.98234 16.98234 21 12 21 C 7.0176056 21 3 16.982346 3 12 C 3 7.0175996 7.0176008 3 12 3 z M 9 8 A 1 1 0 0 0 8 9 A 1 1 0 0 0 9 10 L 9.0097656 10 A 1 1 0 0 0 10.009766 9 A 1 1 0 0 0 9.0097656 8 L 9 8 z M 15 8 A 1 1 0 0 0 14 9 A 1 1 0 0 0 15 10 L 15.009766 10 A 1 1 0 0 0 16.009766 9 A 1 1 0 0 0 15.009766 8 L 15 8 z M 8.140625 13.009766 A 1 1 0 0 0 7.4003906 13.199219 A 1 1 0 0 0 7.1992188 14.599609 C 7.1992188 14.599609 8.9666727 17 12 17 C 15.033327 17 16.800781 14.599609 16.800781 14.599609 A 1 1 0 0 0 16.599609 13.199219 A 1 1 0 0 0 15.199219 13.400391 C 15.199219 13.400391 13.966663 15 12 15 C 10.033337 15 8.8007812 13.400391 8.8007812 13.400391 A 1 1 0 0 0 8.140625 13.009766 z " />
		</symbol>
		<symbol id="icon-search" viewBox="0 0 14 14">
			<path d="M 6.3007812 0 C 2.8213951 0 -5.9211835e-16 2.8213951 0 6.3007812 C 0 9.7801676 2.8213951 12.599609 6.3007812 12.599609 C 7.7882913 12.599609 9.1546212 12.084809 10.232422 11.222656 L 12.804688 13.794922 C 13.078107 14.068341 13.521608 14.068341 13.794922 13.794922 C 14.068342 13.521607 14.068342 13.078106 13.794922 12.804688 L 11.222656 10.232422 C 12.084808 9.1546313 12.599609 7.7882913 12.599609 6.3007812 C 12.599609 2.8213951 9.7801677 0 6.3007812 0 z M 6.3007812 1.4003906 C 9.0069704 1.4003906 11.199219 3.5945921 11.199219 6.3007812 C 11.199219 7.6209426 10.677079 8.818135 9.828125 9.6992188 C 9.804165 9.7176287 9.7817156 9.7378156 9.7597656 9.7597656 C 9.7378256 9.7817056 9.7176387 9.804165 9.6992188 9.828125 C 8.8181349 10.677068 7.6209426 11.199219 6.3007812 11.199219 C 3.5945921 11.199219 1.4003906 9.0069704 1.4003906 6.3007812 C 1.4003906 3.5945921 3.5945921 1.4003906 6.3007812 1.4003906 z " />
		</symbol>
		<symbol id="icon-folder" viewBox="0 0 24 24">
			<path d="m 4.0005625,4.0005623 c -0.5499855,0 -1.0211154,0.1952047 -1.4127684,0.5868566 C 2.1961383,4.9790767 2,5.4502066 2,6.0001873 V 17.999813 c 0,0.549966 0.1961383,1.021101 0.5877941,1.412768 0.391653,0.39162 0.8627829,0.586857 1.4127684,0.586857 H 19.999438 c 0.550013,0 1.021101,-0.195237 1.412768,-0.586857 C 21.803825,19.020914 22,18.549779 22,17.999813 V 7.9998125 C 22,7.4498316 21.803825,6.9796344 21.412206,6.5879814 21.020539,6.1963285 20.549451,6.0001873 19.999438,6.0001873 H 12 l -1.999625,-1.999625 z m 0,1.999625 h 5.174838 l 1.9996255,1.9996252 h 8.824412 V 17.999813 H 4.0005625 Z" />
		</symbol>
		<symbol id="icon-play" viewBox="0 0 46 46">
			<path d="M 22.987997,0 C 19.790956,0.00318 16.630081,0.672685 13.706172,1.9648438 10.782164,3.2569925 8.1589969,5.1424586 6.0051893,7.5039062 3.8513818,9.865324 2.2137375,12.650391 1.1962273,15.679688 c -1.0175101,3.029296 -1.39191294,6.237825 -1.1001404,9.419921 0.2917605,3.182097 1.2428702,6.268603 2.7943176,9.0625 1.5514474,2.793998 3.668504,5.233265 6.2158914,7.164063 2.5473261,1.930798 5.4701151,3.309429 8.5803141,4.048828 3.110198,0.739399 6.340732,0.823793 9.485047,0.246094 0.260925,-0.048 0.492316,-0.197716 0.642889,-0.416016 0.150572,-0.2184 0.208256,-0.487247 0.160233,-0.748047 -0.04802,-0.260799 -0.197712,-0.492078 -0.416217,-0.642578 -0.218505,-0.1505 -0.489436,-0.208156 -0.750362,-0.160156 -4.363602,0.803599 -8.86962,0.20466 -12.871448,-1.710938 C 9.9350249,40.027861 6.6447359,36.893984 4.53573,32.992188 2.426734,29.090291 1.6080598,24.620005 2.1986643,20.224609 2.7892788,15.829214 4.7582067,11.734711 7.8224728,8.5273438 10.886759,5.319957 14.888169,3.1653761 19.253772,2.3730469 c 4.365603,-0.7923192 8.870714,-0.1817375 12.867539,1.7441406 3.996726,1.9258681 7.280617,5.0673135 9.379528,8.9746095 2.098911,3.907296 2.905737,8.379542 2.303847,12.773437 -0.01781,0.1301 -0.01,0.261672 0.02345,0.388672 0.03352,0.127 0.09046,0.246963 0.170004,0.351563 0.07944,0.1045 0.179555,0.191612 0.29311,0.257812 0.113455,0.0662 0.239056,0.109253 0.369318,0.126953 0.262927,0.0358 0.529391,-0.03286 0.740593,-0.193359 0.211302,-0.1605 0.351088,-0.39931 0.386905,-0.662109 0.444914,-3.254297 0.187383,-6.566094 -0.75427,-9.712891 C 44.092141,13.275078 42.488039,10.366243 40.328398,7.890625 38.168758,5.4149875 35.502866,3.429358 32.512125,2.0683594 29.521384,0.7073607 26.27408,0.00257 22.987997,0 Z m -6.002898,13.998047 c -0.175785,10e-5 -0.348068,0.04677 -0.500241,0.134765 -0.152074,0.088 -0.279623,0.214888 -0.367366,0.367188 -0.08764,0.1523 -0.133176,0.3243 -0.132876,0.5 v 16 c -3e-4,0.1757 0.04524,0.3477 0.132876,0.5 0.08774,0.1523 0.215292,0.279188 0.367366,0.367188 0.152173,0.088 0.324456,0.134665 0.500241,0.134765 0.175785,10e-5 0.347968,-0.04687 0.500241,-0.134765 l 14.006762,-8 c 0.153074,-0.0875 0.280876,-0.212735 0.369319,-0.365235 0.08844,-0.1524 0.13483,-0.325753 0.13483,-0.501953 0,-0.1762 -0.04639,-0.349553 -0.13483,-0.501953 -0.08844,-0.1524 -0.216245,-0.277735 -0.369319,-0.365235 l -14.006762,-8 c -0.152273,-0.0878 -0.324456,-0.134765 -0.500241,-0.134765 z M 30.99186,30 c -0.265328,0 -0.519782,0.105469 -0.707372,0.292969 -0.187591,0.1875 -0.293111,0.441831 -0.293111,0.707031 0,0.2652 0.10552,0.519531 0.293111,0.707031 C 30.472078,31.894531 30.726532,32 30.99186,32 h 14.006762 c 0.265328,0 0.519781,-0.105469 0.707372,-0.292969 0.187591,-0.1875 0.29311,-0.441831 0.29311,-0.707031 0,-0.2652 -0.105519,-0.519531 -0.29311,-0.707031 C 45.518403,30.105469 45.26395,30 44.998622,30 Z m 0,6 c -0.265328,0 -0.519782,0.105469 -0.707372,0.292969 -0.187591,0.1875 -0.293111,0.441831 -0.293111,0.707031 0,0.2652 0.10552,0.519531 0.293111,0.707031 C 30.472078,37.894531 30.726532,38 30.99186,38 h 14.006762 c 0.265328,0 0.519781,-0.105469 0.707372,-0.292969 0.187591,-0.1875 0.29311,-0.441831 0.29311,-0.707031 0,-0.2652 -0.105519,-0.519531 -0.29311,-0.707031 C 45.518403,36.105469 45.26395,36 44.998622,36 Z m 0,6 c -0.265328,0 -0.519782,0.105469 -0.707372,0.292969 -0.187591,0.1875 -0.293111,0.441831 -0.293111,0.707031 0,0.2652 0.10552,0.519531 0.293111,0.707031 C 30.472078,43.894531 30.726532,44 30.99186,44 h 14.006762 c 0.265328,0 0.519781,-0.105469 0.707372,-0.292969 0.187591,-0.1875 0.29311,-0.441831 0.29311,-0.707031 0,-0.2652 -0.105519,-0.519531 -0.29311,-0.707031 C 45.518403,42.105469 45.26395,42 44.998622,42 Z" />
		</symbol>
		<symbol id="icon-cross" viewBox="0 0 20 20">
			<path d="m 2.7417912,2 c -0.1789236,0 -0.3583838,0.077237 -0.5117467,0.2308351 -0.3067259,0.3071966 -0.3067259,0.7159093 0,1.0231079 l 6.7484156,6.758773 -6.7484156,6.758772 c -0.3067259,0.307198 -0.3067259,0.715913 0,1.023108 C 2.3322865,17.896995 2.5373073,18 2.7417912,18 2.9462751,18 3.1493427,17.896995 3.2515847,17.794596 L 10,11.035824 16.748416,17.794596 C 16.850658,17.896995 17.053725,18 17.258209,18 c 0.204483,0 0.409504,-0.103005 0.511747,-0.205404 0.306725,-0.307195 0.306725,-0.71591 0,-1.023108 L 11.02154,10.012716 17.769956,3.253943 c 0.306725,-0.3071986 0.306725,-0.7159113 0,-1.0231079 -0.306726,-0.307197 -0.714813,-0.307197 -1.02154,0 L 10,8.9896076 3.2515847,2.2308351 C 3.0982212,2.0772366 2.9207148,2 2.7417912,2 Z" />
		</symbol>
		<symbol id="icon-email" viewBox="0 0 24 24">
			<path d="m 5.4543274,4.637017 c -1.3517564,0 -2.4543276,1.1025835 -2.4543276,2.4543276 v 9.8173104 c 0,1.35172 1.1025712,2.454328 2.4543276,2.454328 H 18.545672 C 19.897392,19.362983 21,18.260375 21,16.908655 V 7.0913446 C 21,5.7396005 19.897392,4.637017 18.545672,4.637017 Z m 0,1.6370174 H 18.545672 c 0.317345,0 0.595793,0.1854622 0.731026,0.452996 L 12,11.82024 4.7233021,6.7270304 C 4.8585968,6.4594966 5.1369341,6.2740344 5.4543274,6.2740344 Z M 4.6370172,8.6636483 11.530226,13.488415 c 0.281696,0.197181 0.657852,0.197181 0.939548,0 l 6.893209,-4.8247667 v 8.2450067 c 0,0.448038 -0.369273,0.817311 -0.817311,0.817311 H 5.4543274 c -0.4480984,0 -0.8173102,-0.369273 -0.8173102,-0.817311 z" />
		</symbol>
		<symbol id="icon-phone" viewBox="0 0 24 24">
			<path d="M 7.046875 3.4628906 C 6.4141734 3.4694833 5.7825938 3.7065247 5.2910156 4.1953125 L 3.84375 5.6347656 C 3.3477984 6.1279019 2.9570081 6.8253031 3.0039062 7.6503906 C 3.0966322 9.2821148 3.8291066 12.594948 7.6484375 16.392578 C 11.739272 20.46019 15.63301 20.659526 17.302734 20.503906 C 17.980777 20.440676 18.536172 20.096286 18.949219 19.685547 L 20.261719 18.382812 C 21.498829 17.152718 21.115512 15.10013 19.605469 14.279297 L 17.84375 13.320312 C 16.843577 12.776567 15.600879 12.927266 14.792969 13.730469 L 14.417969 14.103516 C 14.39299 14.112558 14.303129 14.140673 14.125 14.113281 C 13.74352 14.054851 12.941197 13.740269 11.623047 12.429688 C 10.304527 11.118636 9.9899756 10.321439 9.9316406 9.9453125 C 9.9048294 9.7725554 9.9304241 9.6867959 9.9394531 9.6621094 L 10.160156 9.4433594 C 11.068859 8.5398068 11.134685 7.1104838 10.369141 6.0878906 L 9.2050781 4.5332031 C 8.6758596 3.8262752 7.8603485 3.4544144 7.046875 3.4628906 z M 7.0644531 4.8476562 C 7.4434441 4.8418114 7.8346175 5.0119226 8.0976562 5.3632812 L 9.2617188 6.9179688 C 9.6341532 7.4154525 9.5791955 8.0675785 9.1835938 8.4609375 L 8.9179688 8.7246094 L 9.3085938 9.1171875 C 9.058122 8.8656617 8.9165476 8.7260306 8.9160156 8.7265625 C 8.915111 8.7274763 8.9130394 8.7295188 8.9121094 8.7304688 C 8.9102394 8.7323787 8.90825 8.7342681 8.90625 8.7363281 C 8.90225 8.7404681 8.8989842 8.745163 8.8945312 8.75 C 8.8856213 8.75966 8.8757014 8.7707151 8.8652344 8.7832031 C 8.8443094 8.8081701 8.8198429 8.838218 8.7949219 8.875 C 8.7449659 8.9487369 8.6907279 9.0453562 8.6445312 9.1679688 C 8.5502643 9.4181505 8.5010973 9.7478644 8.5644531 10.15625 C 8.6883579 10.954912 9.2375101 12.011166 10.646484 13.412109 C 12.05592 14.813515 13.116043 15.357708 13.916016 15.480469 C 14.324816 15.543139 14.654254 15.493531 14.904297 15.400391 C 15.026873 15.354701 15.125378 15.301427 15.199219 15.251953 C 15.236139 15.227213 15.266006 15.204364 15.291016 15.183594 C 15.303566 15.173254 15.314529 15.163157 15.324219 15.154297 C 15.329119 15.149897 15.333721 15.144575 15.337891 15.140625 C 15.339991 15.138625 15.34185 15.136566 15.34375 15.134766 L 15.347656 15.132812 L 15.347656 15.130859 C 15.348087 15.130429 15.167817 14.94844 15.023438 14.802734 L 15.349609 15.130859 L 15.769531 14.712891 C 16.123967 14.360486 16.694753 14.272483 17.181641 14.537109 L 18.945312 15.496094 C 19.70015 15.906463 19.818103 16.870398 19.285156 17.400391 L 17.972656 18.705078 C 17.719013 18.957336 17.447223 19.099525 17.173828 19.125 C 15.835556 19.249698 12.37373 19.137641 8.625 15.410156 C 5.0516789 11.857123 4.4604026 8.8687249 4.3867188 7.5722656 C 4.3685631 7.2528027 4.51384 6.9199715 4.8183594 6.6171875 L 6.2675781 5.1757812 C 6.4822794 4.9622955 6.7696823 4.8522023 7.0644531 4.8476562 z " />
		</symbol>

	</defs>
</svg>